<mxfile host="Electron" agent="Mozilla/5.0 (Windows NT 10.0; Win64; x64) AppleWebKit/537.36 (KHTML, like Gecko) draw.io/28.0.6 Chrome/138.0.7204.100 Electron/37.2.3 Safari/537.36" version="28.0.6" pages="2">
  <diagram name="Overblikk" id="PTyqkbVCkyaqfMtPj-sK">
    <mxGraphModel dx="976" dy="564" grid="1" gridSize="10" guides="1" tooltips="1" connect="1" arrows="1" fold="1" page="1" pageScale="1" pageWidth="850" pageHeight="1100" math="0" shadow="0">
      <root>
        <mxCell id="0" />
        <mxCell id="1" parent="0" />
        <mxCell id="i6-jvLr82Qs8qsrnKRQ1-1" value="Bruker" style="shape=umlActor;verticalLabelPosition=bottom;verticalAlign=top;html=1;outlineConnect=0;" vertex="1" parent="1">
          <mxGeometry x="60" y="30" width="30" height="60" as="geometry" />
        </mxCell>
        <mxCell id="i6-jvLr82Qs8qsrnKRQ1-5" style="edgeStyle=orthogonalEdgeStyle;rounded=0;orthogonalLoop=1;jettySize=auto;html=1;exitX=0.55;exitY=0.95;exitDx=0;exitDy=0;exitPerimeter=0;entryX=0.5;entryY=0;entryDx=0;entryDy=0;" edge="1" parent="1" source="i6-jvLr82Qs8qsrnKRQ1-2" target="i6-jvLr82Qs8qsrnKRQ1-4">
          <mxGeometry relative="1" as="geometry" />
        </mxCell>
        <mxCell id="i6-jvLr82Qs8qsrnKRQ1-8" style="edgeStyle=orthogonalEdgeStyle;rounded=0;orthogonalLoop=1;jettySize=auto;html=1;exitX=0.55;exitY=0.95;exitDx=0;exitDy=0;exitPerimeter=0;entryX=0.5;entryY=0;entryDx=0;entryDy=0;" edge="1" parent="1" source="i6-jvLr82Qs8qsrnKRQ1-2" target="i6-jvLr82Qs8qsrnKRQ1-6">
          <mxGeometry relative="1" as="geometry">
            <Array as="points">
              <mxPoint x="236" y="160" />
              <mxPoint x="400" y="160" />
            </Array>
          </mxGeometry>
        </mxCell>
        <mxCell id="i6-jvLr82Qs8qsrnKRQ1-2" value="Web app" style="ellipse;shape=cloud;whiteSpace=wrap;html=1;" vertex="1" parent="1">
          <mxGeometry x="170" y="30" width="120" height="80" as="geometry" />
        </mxCell>
        <mxCell id="i6-jvLr82Qs8qsrnKRQ1-3" style="edgeStyle=orthogonalEdgeStyle;rounded=0;orthogonalLoop=1;jettySize=auto;html=1;exitX=0.5;exitY=0.5;exitDx=0;exitDy=0;exitPerimeter=0;entryX=0.16;entryY=0.55;entryDx=0;entryDy=0;entryPerimeter=0;" edge="1" parent="1" source="i6-jvLr82Qs8qsrnKRQ1-1" target="i6-jvLr82Qs8qsrnKRQ1-2">
          <mxGeometry relative="1" as="geometry" />
        </mxCell>
        <mxCell id="i6-jvLr82Qs8qsrnKRQ1-12" style="edgeStyle=orthogonalEdgeStyle;rounded=0;orthogonalLoop=1;jettySize=auto;html=1;exitX=0.5;exitY=1;exitDx=0;exitDy=0;entryX=0.5;entryY=0;entryDx=0;entryDy=0;" edge="1" parent="1" source="i6-jvLr82Qs8qsrnKRQ1-4" target="i6-jvLr82Qs8qsrnKRQ1-11">
          <mxGeometry relative="1" as="geometry" />
        </mxCell>
        <mxCell id="i6-jvLr82Qs8qsrnKRQ1-14" style="edgeStyle=orthogonalEdgeStyle;rounded=0;orthogonalLoop=1;jettySize=auto;html=1;exitX=0.5;exitY=1;exitDx=0;exitDy=0;entryX=0.5;entryY=0;entryDx=0;entryDy=0;" edge="1" parent="1" source="i6-jvLr82Qs8qsrnKRQ1-4" target="i6-jvLr82Qs8qsrnKRQ1-13">
          <mxGeometry relative="1" as="geometry" />
        </mxCell>
        <mxCell id="i6-jvLr82Qs8qsrnKRQ1-4" value="Login side" style="rounded=0;whiteSpace=wrap;html=1;" vertex="1" parent="1">
          <mxGeometry x="120" y="200" width="120" height="60" as="geometry" />
        </mxCell>
        <mxCell id="i6-jvLr82Qs8qsrnKRQ1-20" style="edgeStyle=orthogonalEdgeStyle;rounded=0;orthogonalLoop=1;jettySize=auto;html=1;exitX=0.5;exitY=1;exitDx=0;exitDy=0;entryX=0.5;entryY=0;entryDx=0;entryDy=0;" edge="1" parent="1" source="i6-jvLr82Qs8qsrnKRQ1-6" target="i6-jvLr82Qs8qsrnKRQ1-19">
          <mxGeometry relative="1" as="geometry" />
        </mxCell>
        <mxCell id="i6-jvLr82Qs8qsrnKRQ1-6" value="Side som viser brukerens lister" style="rounded=0;whiteSpace=wrap;html=1;" vertex="1" parent="1">
          <mxGeometry x="340" y="200" width="120" height="60" as="geometry" />
        </mxCell>
        <mxCell id="i6-jvLr82Qs8qsrnKRQ1-9" value="hvis cachet&amp;nbsp; gyldig token" style="text;strokeColor=none;fillColor=none;align=left;verticalAlign=middle;spacingLeft=4;spacingRight=4;overflow=hidden;points=[[0,0.5],[1,0.5]];portConstraint=eastwest;rotatable=0;whiteSpace=wrap;html=1;" vertex="1" parent="1">
          <mxGeometry x="250" y="130" width="160" height="20" as="geometry" />
        </mxCell>
        <mxCell id="i6-jvLr82Qs8qsrnKRQ1-10" value="ingen / ugyldig token" style="text;html=1;align=center;verticalAlign=middle;resizable=0;points=[];autosize=1;strokeColor=none;fillColor=none;" vertex="1" parent="1">
          <mxGeometry x="110" y="130" width="130" height="30" as="geometry" />
        </mxCell>
        <mxCell id="i6-jvLr82Qs8qsrnKRQ1-11" value="Innfylling av e-post og passord." style="rounded=0;whiteSpace=wrap;html=1;" vertex="1" parent="1">
          <mxGeometry x="190" y="290" width="120" height="60" as="geometry" />
        </mxCell>
        <mxCell id="i6-jvLr82Qs8qsrnKRQ1-16" style="edgeStyle=orthogonalEdgeStyle;rounded=0;orthogonalLoop=1;jettySize=auto;html=1;exitX=0.5;exitY=1;exitDx=0;exitDy=0;entryX=0.5;entryY=0;entryDx=0;entryDy=0;" edge="1" parent="1" source="i6-jvLr82Qs8qsrnKRQ1-13" target="i6-jvLr82Qs8qsrnKRQ1-15">
          <mxGeometry relative="1" as="geometry" />
        </mxCell>
        <mxCell id="i6-jvLr82Qs8qsrnKRQ1-13" value="Registrering" style="rounded=0;whiteSpace=wrap;html=1;" vertex="1" parent="1">
          <mxGeometry x="60" y="290" width="120" height="60" as="geometry" />
        </mxCell>
        <mxCell id="i6-jvLr82Qs8qsrnKRQ1-18" style="edgeStyle=orthogonalEdgeStyle;rounded=0;orthogonalLoop=1;jettySize=auto;html=1;exitX=1;exitY=0.5;exitDx=0;exitDy=0;" edge="1" parent="1" source="i6-jvLr82Qs8qsrnKRQ1-15">
          <mxGeometry relative="1" as="geometry">
            <mxPoint x="180.19047619047615" y="399.80952380952374" as="targetPoint" />
          </mxGeometry>
        </mxCell>
        <mxCell id="i6-jvLr82Qs8qsrnKRQ1-15" value="Innfylling av navn, e-post og passord." style="rounded=0;whiteSpace=wrap;html=1;" vertex="1" parent="1">
          <mxGeometry x="60" y="370" width="120" height="60" as="geometry" />
        </mxCell>
        <mxCell id="i6-jvLr82Qs8qsrnKRQ1-17" value="Web Api" style="ellipse;shape=cloud;whiteSpace=wrap;html=1;" vertex="1" parent="1">
          <mxGeometry x="570" y="40" width="120" height="80" as="geometry" />
        </mxCell>
        <mxCell id="i6-jvLr82Qs8qsrnKRQ1-19" value="Varer i liste" style="rounded=0;whiteSpace=wrap;html=1;" vertex="1" parent="1">
          <mxGeometry x="340" y="290" width="120" height="60" as="geometry" />
        </mxCell>
        <mxCell id="i6-jvLr82Qs8qsrnKRQ1-21" style="edgeStyle=orthogonalEdgeStyle;rounded=0;orthogonalLoop=1;jettySize=auto;html=1;exitX=1;exitY=0.5;exitDx=0;exitDy=0;entryX=0.55;entryY=0.95;entryDx=0;entryDy=0;entryPerimeter=0;" edge="1" parent="1" source="i6-jvLr82Qs8qsrnKRQ1-15" target="i6-jvLr82Qs8qsrnKRQ1-17">
          <mxGeometry relative="1" as="geometry" />
        </mxCell>
        <mxCell id="i6-jvLr82Qs8qsrnKRQ1-22" style="edgeStyle=orthogonalEdgeStyle;rounded=0;orthogonalLoop=1;jettySize=auto;html=1;exitX=0.5;exitY=1;exitDx=0;exitDy=0;entryX=0.55;entryY=0.95;entryDx=0;entryDy=0;entryPerimeter=0;" edge="1" parent="1" source="i6-jvLr82Qs8qsrnKRQ1-11" target="i6-jvLr82Qs8qsrnKRQ1-17">
          <mxGeometry relative="1" as="geometry" />
        </mxCell>
        <mxCell id="i6-jvLr82Qs8qsrnKRQ1-23" style="edgeStyle=orthogonalEdgeStyle;rounded=0;orthogonalLoop=1;jettySize=auto;html=1;exitX=1;exitY=0.5;exitDx=0;exitDy=0;entryX=0.55;entryY=0.95;entryDx=0;entryDy=0;entryPerimeter=0;" edge="1" parent="1" source="i6-jvLr82Qs8qsrnKRQ1-19" target="i6-jvLr82Qs8qsrnKRQ1-17">
          <mxGeometry relative="1" as="geometry" />
        </mxCell>
        <mxCell id="i6-jvLr82Qs8qsrnKRQ1-24" style="edgeStyle=orthogonalEdgeStyle;rounded=0;orthogonalLoop=1;jettySize=auto;html=1;exitX=1;exitY=0.5;exitDx=0;exitDy=0;entryX=0.55;entryY=0.95;entryDx=0;entryDy=0;entryPerimeter=0;" edge="1" parent="1" source="i6-jvLr82Qs8qsrnKRQ1-6" target="i6-jvLr82Qs8qsrnKRQ1-17">
          <mxGeometry relative="1" as="geometry" />
        </mxCell>
        <mxCell id="i6-jvLr82Qs8qsrnKRQ1-26" value="F책 lister for bruker" style="rounded=0;whiteSpace=wrap;html=1;" vertex="1" parent="1">
          <mxGeometry x="500" y="215" width="100" height="30" as="geometry" />
        </mxCell>
        <mxCell id="i6-jvLr82Qs8qsrnKRQ1-28" value="F책 varer i liste" style="rounded=0;whiteSpace=wrap;html=1;" vertex="1" parent="1">
          <mxGeometry x="500" y="305" width="100" height="30" as="geometry" />
        </mxCell>
        <mxCell id="i6-jvLr82Qs8qsrnKRQ1-30" value="Logg inn, f책 user token" style="rounded=0;whiteSpace=wrap;html=1;" vertex="1" parent="1">
          <mxGeometry x="460" y="360" width="130" height="30" as="geometry" />
        </mxCell>
        <mxCell id="i6-jvLr82Qs8qsrnKRQ1-32" value="Register, f책 user token" style="rounded=0;whiteSpace=wrap;html=1;" vertex="1" parent="1">
          <mxGeometry x="265" y="385" width="130" height="30" as="geometry" />
        </mxCell>
        <mxCell id="i6-jvLr82Qs8qsrnKRQ1-33" value="Database" style="shape=cylinder3;whiteSpace=wrap;html=1;boundedLbl=1;backgroundOutline=1;size=15;" vertex="1" parent="1">
          <mxGeometry x="770" y="40" width="60" height="80" as="geometry" />
        </mxCell>
        <mxCell id="i6-jvLr82Qs8qsrnKRQ1-34" style="edgeStyle=orthogonalEdgeStyle;rounded=0;orthogonalLoop=1;jettySize=auto;html=1;exitX=0.875;exitY=0.5;exitDx=0;exitDy=0;exitPerimeter=0;entryX=0;entryY=0.5;entryDx=0;entryDy=0;entryPerimeter=0;" edge="1" parent="1" source="i6-jvLr82Qs8qsrnKRQ1-17" target="i6-jvLr82Qs8qsrnKRQ1-33">
          <mxGeometry relative="1" as="geometry" />
        </mxCell>
        <mxCell id="i6-jvLr82Qs8qsrnKRQ1-35" value="Bruker tabell" style="rounded=0;whiteSpace=wrap;html=1;" vertex="1" parent="1">
          <mxGeometry x="740" y="130" width="120" height="30" as="geometry" />
        </mxCell>
        <mxCell id="i6-jvLr82Qs8qsrnKRQ1-36" value="Liste tabell" style="rounded=0;whiteSpace=wrap;html=1;" vertex="1" parent="1">
          <mxGeometry x="740" y="170" width="120" height="30" as="geometry" />
        </mxCell>
        <mxCell id="i6-jvLr82Qs8qsrnKRQ1-37" value="Varer tabell" style="rounded=0;whiteSpace=wrap;html=1;" vertex="1" parent="1">
          <mxGeometry x="740" y="210" width="120" height="30" as="geometry" />
        </mxCell>
        <mxCell id="i6-jvLr82Qs8qsrnKRQ1-38" value="Refreshtoken tabell" style="rounded=0;whiteSpace=wrap;html=1;" vertex="1" parent="1">
          <mxGeometry x="740" y="250" width="120" height="30" as="geometry" />
        </mxCell>
      </root>
    </mxGraphModel>
  </diagram>
  <diagram id="3YtpaK1Sd3L0o7E2pnuf" name="Web Api">
    <mxGraphModel dx="1171" dy="677" grid="1" gridSize="10" guides="1" tooltips="1" connect="1" arrows="1" fold="1" page="1" pageScale="1" pageWidth="850" pageHeight="1100" math="0" shadow="0">
      <root>
        <mxCell id="0" />
        <mxCell id="1" parent="0" />
        <mxCell id="A3riRknBtGOK4HdQMXaN-1" value="Bruker" style="shape=umlActor;verticalLabelPosition=bottom;verticalAlign=top;html=1;outlineConnect=0;" vertex="1" parent="1">
          <mxGeometry x="50" y="30" width="30" height="60" as="geometry" />
        </mxCell>
        <mxCell id="A3riRknBtGOK4HdQMXaN-2" value="Web App" style="ellipse;shape=cloud;whiteSpace=wrap;html=1;" vertex="1" parent="1">
          <mxGeometry x="110" y="20" width="120" height="80" as="geometry" />
        </mxCell>
        <mxCell id="A3riRknBtGOK4HdQMXaN-3" value="Web Api" style="ellipse;shape=cloud;whiteSpace=wrap;html=1;" vertex="1" parent="1">
          <mxGeometry x="280" y="10" width="120" height="80" as="geometry" />
        </mxCell>
        <mxCell id="A3riRknBtGOK4HdQMXaN-4" style="edgeStyle=orthogonalEdgeStyle;rounded=0;orthogonalLoop=1;jettySize=auto;html=1;exitX=0.5;exitY=0.5;exitDx=0;exitDy=0;exitPerimeter=0;entryX=0.16;entryY=0.55;entryDx=0;entryDy=0;entryPerimeter=0;" edge="1" parent="1" source="A3riRknBtGOK4HdQMXaN-1" target="A3riRknBtGOK4HdQMXaN-2">
          <mxGeometry relative="1" as="geometry" />
        </mxCell>
        <mxCell id="A3riRknBtGOK4HdQMXaN-5" style="edgeStyle=orthogonalEdgeStyle;rounded=0;orthogonalLoop=1;jettySize=auto;html=1;exitX=0.875;exitY=0.5;exitDx=0;exitDy=0;exitPerimeter=0;entryX=0.16;entryY=0.55;entryDx=0;entryDy=0;entryPerimeter=0;" edge="1" parent="1" source="A3riRknBtGOK4HdQMXaN-2" target="A3riRknBtGOK4HdQMXaN-3">
          <mxGeometry relative="1" as="geometry" />
        </mxCell>
        <mxCell id="A3riRknBtGOK4HdQMXaN-6" value="" style="rounded=0;whiteSpace=wrap;html=1;" vertex="1" parent="1">
          <mxGeometry x="280" y="100" width="120" height="120" as="geometry" />
        </mxCell>
        <mxCell id="A3riRknBtGOK4HdQMXaN-7" value="&quot;User&quot; Controller" style="text;strokeColor=none;fillColor=none;align=left;verticalAlign=middle;spacingLeft=4;spacingRight=4;overflow=hidden;points=[[0,0.5],[1,0.5]];portConstraint=eastwest;rotatable=0;whiteSpace=wrap;html=1;" vertex="1" parent="1">
          <mxGeometry x="290" y="100" width="100" height="30" as="geometry" />
        </mxCell>
        <mxCell id="A3riRknBtGOK4HdQMXaN-8" value="Login" style="rounded=0;whiteSpace=wrap;html=1;" vertex="1" parent="1">
          <mxGeometry x="280" y="130" width="120" height="30" as="geometry" />
        </mxCell>
        <mxCell id="A3riRknBtGOK4HdQMXaN-9" value="Register" style="rounded=0;whiteSpace=wrap;html=1;" vertex="1" parent="1">
          <mxGeometry x="280" y="160" width="120" height="30" as="geometry" />
        </mxCell>
        <mxCell id="A3riRknBtGOK4HdQMXaN-10" value="Refresh" style="rounded=0;whiteSpace=wrap;html=1;" vertex="1" parent="1">
          <mxGeometry x="280" y="190" width="120" height="30" as="geometry" />
        </mxCell>
        <mxCell id="A3riRknBtGOK4HdQMXaN-12" value="" style="rounded=0;whiteSpace=wrap;html=1;" vertex="1" parent="1">
          <mxGeometry x="280" y="240" width="120" height="150" as="geometry" />
        </mxCell>
        <mxCell id="A3riRknBtGOK4HdQMXaN-13" value="&quot;List&quot; Controller" style="text;strokeColor=none;fillColor=none;align=left;verticalAlign=middle;spacingLeft=4;spacingRight=4;overflow=hidden;points=[[0,0.5],[1,0.5]];portConstraint=eastwest;rotatable=0;whiteSpace=wrap;html=1;" vertex="1" parent="1">
          <mxGeometry x="290" y="240" width="100" height="30" as="geometry" />
        </mxCell>
        <mxCell id="A3riRknBtGOK4HdQMXaN-14" value="Get lists" style="rounded=0;whiteSpace=wrap;html=1;" vertex="1" parent="1">
          <mxGeometry x="280" y="270" width="120" height="30" as="geometry" />
        </mxCell>
        <mxCell id="A3riRknBtGOK4HdQMXaN-15" value="Create list" style="rounded=0;whiteSpace=wrap;html=1;" vertex="1" parent="1">
          <mxGeometry x="280" y="300" width="120" height="30" as="geometry" />
        </mxCell>
        <mxCell id="A3riRknBtGOK4HdQMXaN-16" value="Update lists" style="rounded=0;whiteSpace=wrap;html=1;" vertex="1" parent="1">
          <mxGeometry x="280" y="330" width="120" height="30" as="geometry" />
        </mxCell>
        <mxCell id="A3riRknBtGOK4HdQMXaN-17" value="Delete list" style="rounded=0;whiteSpace=wrap;html=1;" vertex="1" parent="1">
          <mxGeometry x="280" y="360" width="120" height="30" as="geometry" />
        </mxCell>
        <mxCell id="A3riRknBtGOK4HdQMXaN-18" value="" style="rounded=0;whiteSpace=wrap;html=1;" vertex="1" parent="1">
          <mxGeometry x="280" y="410" width="120" height="150" as="geometry" />
        </mxCell>
        <mxCell id="A3riRknBtGOK4HdQMXaN-19" value="&quot;Items&quot; Controller" style="text;strokeColor=none;fillColor=none;align=left;verticalAlign=middle;spacingLeft=4;spacingRight=4;overflow=hidden;points=[[0,0.5],[1,0.5]];portConstraint=eastwest;rotatable=0;whiteSpace=wrap;html=1;" vertex="1" parent="1">
          <mxGeometry x="290" y="410" width="100" height="30" as="geometry" />
        </mxCell>
        <mxCell id="A3riRknBtGOK4HdQMXaN-20" value="Get items" style="rounded=0;whiteSpace=wrap;html=1;" vertex="1" parent="1">
          <mxGeometry x="280" y="440" width="120" height="30" as="geometry" />
        </mxCell>
        <mxCell id="A3riRknBtGOK4HdQMXaN-21" value="Create item" style="rounded=0;whiteSpace=wrap;html=1;" vertex="1" parent="1">
          <mxGeometry x="280" y="470" width="120" height="30" as="geometry" />
        </mxCell>
        <mxCell id="A3riRknBtGOK4HdQMXaN-22" value="Update items" style="rounded=0;whiteSpace=wrap;html=1;" vertex="1" parent="1">
          <mxGeometry x="280" y="500" width="120" height="30" as="geometry" />
        </mxCell>
        <mxCell id="A3riRknBtGOK4HdQMXaN-23" value="Delete item" style="rounded=0;whiteSpace=wrap;html=1;" vertex="1" parent="1">
          <mxGeometry x="280" y="530" width="120" height="30" as="geometry" />
        </mxCell>
        <mxCell id="A3riRknBtGOK4HdQMXaN-24" value="Database" style="shape=cylinder3;whiteSpace=wrap;html=1;boundedLbl=1;backgroundOutline=1;size=15;" vertex="1" parent="1">
          <mxGeometry x="660" y="20" width="60" height="80" as="geometry" />
        </mxCell>
        <mxCell id="A3riRknBtGOK4HdQMXaN-25" style="edgeStyle=orthogonalEdgeStyle;rounded=0;orthogonalLoop=1;jettySize=auto;html=1;exitX=0.55;exitY=0.95;exitDx=0;exitDy=0;exitPerimeter=0;entryX=0.559;entryY=0;entryDx=0;entryDy=0;entryPerimeter=0;endArrow=none;endFill=0;" edge="1" parent="1" source="A3riRknBtGOK4HdQMXaN-3" target="A3riRknBtGOK4HdQMXaN-7">
          <mxGeometry relative="1" as="geometry" />
        </mxCell>
        <mxCell id="A3riRknBtGOK4HdQMXaN-26" style="edgeStyle=orthogonalEdgeStyle;rounded=0;orthogonalLoop=1;jettySize=auto;html=1;exitX=0.5;exitY=1;exitDx=0;exitDy=0;entryX=0.497;entryY=-0.054;entryDx=0;entryDy=0;entryPerimeter=0;endArrow=none;endFill=0;" edge="1" parent="1" source="A3riRknBtGOK4HdQMXaN-10" target="A3riRknBtGOK4HdQMXaN-13">
          <mxGeometry relative="1" as="geometry" />
        </mxCell>
        <mxCell id="A3riRknBtGOK4HdQMXaN-27" style="edgeStyle=orthogonalEdgeStyle;rounded=0;orthogonalLoop=1;jettySize=auto;html=1;exitX=0.5;exitY=1;exitDx=0;exitDy=0;entryX=0.502;entryY=0;entryDx=0;entryDy=0;entryPerimeter=0;endArrow=none;endFill=0;" edge="1" parent="1" source="A3riRknBtGOK4HdQMXaN-17" target="A3riRknBtGOK4HdQMXaN-19">
          <mxGeometry relative="1" as="geometry" />
        </mxCell>
        <mxCell id="A3riRknBtGOK4HdQMXaN-28" style="edgeStyle=orthogonalEdgeStyle;rounded=0;orthogonalLoop=1;jettySize=auto;html=1;exitX=0.875;exitY=0.5;exitDx=0;exitDy=0;exitPerimeter=0;entryX=-0.037;entryY=0.563;entryDx=0;entryDy=0;entryPerimeter=0;" edge="1" parent="1" source="A3riRknBtGOK4HdQMXaN-3" target="A3riRknBtGOK4HdQMXaN-24">
          <mxGeometry relative="1" as="geometry" />
        </mxCell>
        <mxCell id="A3riRknBtGOK4HdQMXaN-29" value="Kommunikasjon, eksklusivt via Stored Procedures." style="rounded=0;whiteSpace=wrap;html=1;" vertex="1" parent="1">
          <mxGeometry x="460" y="30" width="120" height="60" as="geometry" />
        </mxCell>
        <mxCell id="A3riRknBtGOK4HdQMXaN-30" value="Forsterker prinsipper om ansvar og eierskap." style="rounded=0;whiteSpace=wrap;html=1;" vertex="1" parent="1">
          <mxGeometry x="460" y="90" width="120" height="50" as="geometry" />
        </mxCell>
      </root>
    </mxGraphModel>
  </diagram>
</mxfile>
